<svg xmlns="http://www.w3.org/2000/svg" xmlns:xlink="http://www.w3.org/1999/xlink" width="129" height="129" viewBox="0 0 129 129"><defs><style>.a{stroke:#707070;}.a,.c{fill:url(#a);}.b{opacity:0.8;clip-path:url(#b);}</style><linearGradient id="a" x1="0.5" x2="0.5" y2="1" gradientUnits="objectBoundingBox"><stop offset="0" stop-color="#20c997"/><stop offset="1" stop-color="#53e8de"/></linearGradient><clipPath id="b"><rect class="a" width="129" height="129" transform="translate(145 108)"/></clipPath></defs><g class="b" transform="translate(-145 -108)"><g transform="translate(145 108)"><path class="c" d="M66.4,87.184v-.5c-2.569-.028-5.025-.168-7.4-.363A33.712,33.712,0,0,1,53.646,95.5a87.212,87.212,0,0,0,12.927,1.145Z"/><path class="c" d="M55.1,68.7A28.03,28.03,0,0,0,36.057,47.734a28.436,28.436,0,0,0-8.236-1.228A27.819,27.819,0,1,0,46.554,94.89a27.663,27.663,0,0,0,9.1-20.576A29.2,29.2,0,0,0,55.1,68.7ZM27.82,70.572a10.537,10.537,0,0,1,2.848,20.688v2.457a2.792,2.792,0,1,1-5.584,0V91.288A10.606,10.606,0,0,1,17.267,81.1a2.792,2.792,0,1,1,5.584,0,4.956,4.956,0,1,0,4.942-4.97,10.533,10.533,0,0,1-2.68-20.716v-1.2a2.792,2.792,0,0,1,5.584,0v1.256a10.554,10.554,0,0,1,7.678,10.163,2.792,2.792,0,0,1-5.584,0,4.97,4.97,0,1,0-4.97,4.942Z"/><path class="c" d="M66.321,81.07l-.168-9.883c-1.731-.028-3.434-.084-5.053-.2.084,1.117.14,2.206.14,3.294a34.32,34.32,0,0,1-.642,6.533C62.44,80.986,64.367,81.07,66.321,81.07Z"/><path class="c" d="M96.893,34.864a33.485,33.485,0,0,1-6.058,2.429,83.265,83.265,0,0,1-23.117,2.932,82.52,82.52,0,0,1-22.14-2.708A30.932,30.932,0,0,1,39.547,35.2l.2,7.873a32.212,32.212,0,0,1,8.739,4.942c.084.028.14.028.223.056a79.877,79.877,0,0,0,19.013,2.094,79.028,79.028,0,0,0,21.5-2.708c6.058-1.843,7.4-3.769,7.4-4.132a1.6,1.6,0,0,1,.279-1.145V34.864Z"/><path class="c" d="M89.187,23.78c-5.668-1.731-13.513-2.708-21.5-2.708A75.416,75.416,0,0,0,46.471,23.78c-5.891,1.787-7.175,3.546-7.2,4.1,0,0,.028,0,.028.056.14.614,1.815,2.513,7.817,4.244A76.657,76.657,0,0,0,67.689,34.7a78.892,78.892,0,0,0,21.47-2.68c6.058-1.815,7.427-3.741,7.427-4.132C96.586,27.521,95.245,25.622,89.187,23.78Z"/><path class="c" d="M128.944,101.032V92.657a35.783,35.783,0,0,1-5.863,2.373,82.563,82.563,0,0,1-23.061,2.932,85.922,85.922,0,0,1-20.967-2.4A36.378,36.378,0,0,1,72.1,93.019l.14,8.1v.056c0,.419,1.228,2.289,7.119,4.1a75.974,75.974,0,0,0,21.191,2.652,74.539,74.539,0,0,0,21.247-2.736c5.891-1.843,7.175-3.769,7.175-4.16h-.028Z"/><path class="c" d="M96.837,50.443a35.258,35.258,0,0,1-6.031,2.4,83.332,83.332,0,0,1-23.145,2.932,100.556,100.556,0,0,1-12.647-.81,33.1,33.1,0,0,1,5,10.386c2.4.168,5,.279,7.678.279h.279c4.579-5.025,16.891-7.538,28.869-7.873V50.443Z"/><path class="c" d="M122.886,79.59a83.568,83.568,0,0,1-22.81,2.848,82.52,82.52,0,0,1-22.14-2.708,34.256,34.256,0,0,1-6.086-2.345l.112,6.421.028,2.345c2.178,2.708,12.592,6.2,28.059,6.2a77.246,77.246,0,0,0,21.414-2.68c6.031-1.843,7.343-3.741,7.343-4.132,0-.307.168-.642.168-.921H129v-7.4A31.877,31.877,0,0,1,122.886,79.59Z"/><path class="c" d="M121.573,66.049c-5.7-1.731-13.513-2.652-21.5-2.652H99.6A75.983,75.983,0,0,0,79.694,65.77c-5.779,1.619-7.762,3.462-8.013,4.216a.211.211,0,0,0-.028.112l.056.112c.168.586,1.815,2.485,7.817,4.244A77.882,77.882,0,0,0,100.1,76.938a77.556,77.556,0,0,0,21.219-2.624c6.2-1.843,7.594-3.769,7.622-4.188V70.1C128.916,69.679,127.52,67.836,121.573,66.049Z"/></g></g></svg>