<svg xmlns="http://www.w3.org/2000/svg" xmlns:xlink="http://www.w3.org/1999/xlink" width="109" height="109" viewBox="0 0 109 109"><defs><style>.a{stroke:#707070;}.a,.c{fill:url(#a);}.b{opacity:0.8;clip-path:url(#b);}</style><linearGradient id="a" x1="0.5" x2="0.5" y2="1" gradientUnits="objectBoundingBox"><stop offset="0" stop-color="#20c997"/><stop offset="1" stop-color="#53e8de"/></linearGradient><clipPath id="b"><rect class="a" width="109" height="109" transform="translate(145.21 108.21)"/></clipPath></defs><g class="b" transform="translate(-145.21 -108.21)"><g transform="translate(144.986 116.193)"><path class="c" d="M61.154,55.173c10.344,0,18.73-10.185,18.73-22.75s-2.754-22.75-18.73-22.75-18.73,10.185-18.73,22.75S50.81,55.173,61.154,55.173Z" transform="translate(-6.43 -9.674)"/><path class="c" d="M93.517,97.43c-.346-21.887-3.205-28.124-25.079-32.072,0,0-3.08,3.923-10.257,3.923s-10.256-3.923-10.256-3.923c-21.636,3.9-24.669,10.049-25.067,31.361-.032,1.74-.047,1.832-.053,1.63,0,.379,0,1.079,0,2.3,0,0,5.208,10.5,35.374,10.5s35.374-10.5,35.374-10.5c0-.784,0-1.33,0-1.7A13.758,13.758,0,0,1,93.517,97.43Z" transform="translate(-3.456 -18.114)"/><path class="c" d="M93.9,51.912c8.4,0,15.212-8.272,15.212-18.477S106.872,14.959,93.9,14.959a21.69,21.69,0,0,0-5.676.673c3,5.525,3.408,12.236,3.408,17.593a31.2,31.2,0,0,1-4.672,16.65A13.03,13.03,0,0,0,93.9,51.912Z" transform="translate(-13.179 -10.475)"/><path class="c" d="M123.709,86.233c-.282-17.776-2.6-22.842-20.369-26.048,0,0-2.5,3.187-8.33,3.187-.241,0-.475-.007-.7-.018a23.371,23.371,0,0,1,9.554,7.4c4.289,5.882,5.276,13.783,5.479,25.39,11.953-2.362,14.4-7.294,14.4-7.294,0-.643,0-1.084,0-1.385A10.528,10.528,0,0,1,123.709,86.233Z" transform="translate(-14.293 -17.329)"/><path class="c" d="M31.146,51.912a13.035,13.035,0,0,0,6.941-2.037,31.2,31.2,0,0,1-4.672-16.65c0-5.357.411-12.068,3.407-17.593a21.685,21.685,0,0,0-5.676-.673c-12.976,0-15.212,8.272-15.212,18.477S22.745,51.912,31.146,51.912Z" transform="translate(-2.415 -10.475)"/><path class="c" d="M29.436,63.353c-.229.01-.463.018-.7.018-5.829,0-8.33-3.187-8.33-3.187C2.636,63.391.314,68.456.032,86.232A10.787,10.787,0,0,1,0,87.461c0,.3,0,.742,0,1.385,0,0,2.45,4.932,14.4,7.294.2-11.607,1.19-19.508,5.48-25.39A23.371,23.371,0,0,1,29.436,63.353Z" transform="translate(0 -17.329)"/></g></g></svg>