<svg xmlns="http://www.w3.org/2000/svg" xmlns:xlink="http://www.w3.org/1999/xlink" width="70.566" height="80.289" viewBox="0 0 70.566 80.289"><defs><style>.a{opacity:0.8;}.b{fill:url(#a);}</style><linearGradient id="a" x1="0.5" x2="0.5" y2="1" gradientUnits="objectBoundingBox"><stop offset="0" stop-color="#20c997"/><stop offset="1" stop-color="#53e8de"/></linearGradient></defs><g class="a" transform="translate(-31 0)"><path class="b" d="M205.618,92.914a2.364,2.364,0,0,0,3.211-.864l0,0a2.352,2.352,0,1,0-3.214.866Z" transform="translate(-146.244 -74.641)"/><path class="b" d="M120.7,32.616a2.354,2.354,0,0,0,3.214-.861l7.057-12.223a2.352,2.352,0,0,0-.861-3.214l-28.518-16a2.347,2.347,0,0,0-3.214.861L91.316,13.4a2.352,2.352,0,0,0,.861,3.214ZM105.029,12.705a7.057,7.057,0,0,1,12.223,7.057v0a7.057,7.057,0,0,1-12.223-7.059Z" transform="translate(-50.591)"/><g transform="translate(31 18.817)"><path class="b" d="M211.289,323.5c-2.558,0-3.513,2.676-3.63,3.036a2.338,2.338,0,0,1-4.5,0c-.117-.36-1.071-3.036-3.63-3.036A3.423,3.423,0,0,0,196,327.04c0,2.475,2.676,4.675,7.8,8.67.524.408,1.057.824,1.606,1.255.549-.431,1.082-.847,1.606-1.255,5.127-3.995,7.8-6.194,7.8-8.67A3.423,3.423,0,0,0,211.289,323.5Z" transform="translate(-170.126 -291.588)"/><path class="b" d="M99.214,120H85.353a7,7,0,0,1-.909,3.074l-6.373,11.04H85.1a2.352,2.352,0,1,1,0,4.7H47.465a2.352,2.352,0,1,1,0-4.7H61.054L39.283,121.9a7.171,7.171,0,0,1-2.148-1.9H33.352A2.351,2.351,0,0,0,31,122.352v56.767a2.351,2.351,0,0,0,2.352,2.352H99.214a2.351,2.351,0,0,0,2.352-2.352V122.352A2.351,2.351,0,0,0,99.214,120ZM70.781,167.832c-.968.754-1.968,1.533-3.028,2.382a2.352,2.352,0,0,1-2.939,0c-1.061-.848-2.061-1.628-3.028-2.382-5.582-4.349-9.616-7.491-9.616-12.38a8.151,8.151,0,0,1,8.233-8.245,7.867,7.867,0,0,1,5.881,2.566,7.867,7.867,0,0,1,5.881-2.566,8.151,8.151,0,0,1,8.233,8.245C80.4,160.341,76.363,163.483,70.781,167.832Z" transform="translate(-31 -120)"/></g></g></svg>