<svg xmlns="http://www.w3.org/2000/svg" xmlns:xlink="http://www.w3.org/1999/xlink" width="97" height="97" viewBox="0 0 97 97"><defs><style>.a{stroke:#707070;}.a,.c{fill:url(#a);}.b{opacity:0.78;clip-path:url(#b);}</style><linearGradient id="a" x1="0.5" x2="0.5" y2="1" gradientUnits="objectBoundingBox"><stop offset="0" stop-color="#20c997"/><stop offset="1" stop-color="#53e8de"/></linearGradient><clipPath id="b"><rect class="a" width="97" height="97" transform="translate(118.565 81.065)"/></clipPath></defs><g class="b" transform="translate(-118.565 -81.065)"><g transform="translate(120.289 83.065)"><path class="c" d="M59.222,45.273A13.944,13.944,0,1,0,73.152,59.217,13.953,13.953,0,0,0,59.222,45.273Zm0,22.166a8.222,8.222,0,1,1,8.218-8.222,8.23,8.23,0,0,1-8.218,8.222Z" transform="translate(-12.445 -12.44)"/><path class="c" d="M90.189,29.294a12.787,12.787,0,1,1-15.915-15.9V8.922A46.785,46.785,0,0,0,0,46.776,46.777,46.777,0,0,0,79.852,79.852,46.883,46.883,0,0,0,90.189,29.294ZM46.776,81.437a34.7,34.7,0,0,1-34.66-34.66H17.6A29.212,29.212,0,0,0,46.776,75.955Zm0-15.235A19.425,19.425,0,1,1,66.189,46.776,19.441,19.441,0,0,1,46.776,66.2Z" transform="translate(0 0)"/><ellipse class="c" cx="2.737" cy="2.741" rx="2.737" ry="2.741" transform="translate(44.04 44.036)"/><path class="c" d="M97.316,25.649a7.3,7.3,0,1,0,14.609,0V5.482h5.941V0H106.444V18.569a7.307,7.307,0,0,0-9.127,7.079Z" transform="translate(-26.741)"/></g></g></svg>