<svg xmlns="http://www.w3.org/2000/svg" xmlns:xlink="http://www.w3.org/1999/xlink" width="59.779" height="59.779" viewBox="0 0 59.779 59.779"><defs><style>.a{fill:url(#a);}</style><linearGradient id="a" x1="0.5" x2="0.5" y2="1" gradientUnits="objectBoundingBox"><stop offset="0" stop-color="#20c997"/><stop offset="1" stop-color="#53e8de"/></linearGradient></defs><path class="a" d="M40.851,31.937a8.91,8.91,0,1,0,8.9,8.91A8.916,8.916,0,0,0,40.851,31.937Zm0,14.164A5.254,5.254,0,1,1,46.1,40.847,5.259,5.259,0,0,1,40.851,46.1Z" transform="translate(-10.961 -10.957)"/><path class="a" d="M57.63,18.718A8.171,8.171,0,1,1,47.46,8.557V5.7A29.9,29.9,0,0,0,0,29.89,29.89,29.89,0,0,0,51.025,51.025a29.958,29.958,0,0,0,6.6-32.307ZM29.89,52.037A22.173,22.173,0,0,1,7.742,29.89h3.5A18.666,18.666,0,0,0,29.89,48.534Zm0-9.735a12.412,12.412,0,1,1,12.4-12.412A12.422,12.422,0,0,1,29.89,42.3Z" transform="translate(0 0)"/><ellipse class="a" cx="1.749" cy="1.751" rx="1.749" ry="1.751" transform="translate(28.141 28.138)"/><path class="a" d="M68.649,16.389a4.668,4.668,0,1,0,9.335,0V3.5h3.8V0h-7.3V11.866a4.669,4.669,0,0,0-5.832,4.523Z" transform="translate(-23.553)"/></svg>